<svg xmlns="http://www.w3.org/2000/svg" viewBox="0 0 256 256" role="img" aria-label="Educational Society logo">
	<defs>
		<linearGradient id="bgGrad" x1="0" y1="0" x2="1" y2="1">
			<stop offset="0%" stop-color="#0f766e" />
			<stop offset="100%" stop-color="#0ea5e9" />
		</linearGradient>
		<linearGradient id="bookGrad" x1="0" y1="0" x2="0" y2="1">
			<stop offset="0%" stop-color="#ffffff" />
			<stop offset="100%" stop-color="#e2e8f0" />
		</linearGradient>
	</defs>

	<circle cx="128" cy="128" r="120" fill="url(#bgGrad)" />
	<circle cx="128" cy="128" r="112" fill="none" stroke="#ffffff" stroke-opacity="0.35" stroke-width="2" />

	<path d="M62 170c-7-15-9-33-5-51 4-19 14-35 28-47" fill="none" stroke="#fde68a" stroke-width="8" stroke-linecap="round" stroke-opacity="0.9"/>
	<path d="M194 170c7-15 9-33 5-51-4-19-14-35-28-47" fill="none" stroke="#fde68a" stroke-width="8" stroke-linecap="round" stroke-opacity="0.9"/>

	<path d="M128 58l46 18-46 18-46-18z" fill="#1e293b" />
	<path d="M174 76v26" stroke="#1e293b" stroke-width="6" stroke-linecap="round" />
	<circle cx="174" cy="106" r="5" fill="#1e293b" />

	<path d="M72 94c16 0 32 5 56 20v66c-24-15-40-20-56-20z" fill="url(#bookGrad)" />
	<path d="M184 94c-16 0-32 5-56 20v66c24-15 40-20 56-20z" fill="url(#bookGrad)" />
	<path d="M128 114v66" stroke="#94a3b8" stroke-width="3" />

	<text x="128" y="160" text-anchor="middle" font-family="Verdana, Geneva, sans-serif" font-size="28" font-weight="700" fill="#0f172a">ES</text>
</svg>